<svg width="20" height="20" viewBox="0 0 20 20" fill="none" xmlns="http://www.w3.org/2000/svg">
<g id="Frame">
<path id="Vector" d="M16.6572 9.643C16.5857 8.28761 16.1094 7.03954 15.3469 6.01747C15.1457 6.23672 14.8987 6.47483 14.5797 6.74299C13.8234 7.37882 12.9072 7.95256 11.8195 8.4175C11.9582 8.70883 12.0857 8.99158 12.198 9.25817L12.199 9.26042C12.221 9.31183 12.2399 9.35883 12.2767 9.4515C12.2816 9.4635 12.2861 9.47475 12.2904 9.48542C13.5517 9.3435 14.8813 9.39575 16.1707 9.57042C16.3422 9.59358 16.5042 9.61792 16.6572 9.643ZM8.837 3.43442C8.98191 3.63851 9.1335 3.85716 9.31691 4.12815C9.82741 4.88242 10.33 5.67826 10.8003 6.49589C10.8957 6.6618 10.9892 6.82741 11.0803 6.9926C12.0994 6.59161 12.9413 6.08567 13.6198 5.52072C13.8942 5.29219 14.1152 5.0775 14.2836 4.89143C13.1251 3.91897 11.6309 3.33333 10 3.33333C9.60333 3.33333 9.21466 3.36798 8.837 3.43442ZM3.54388 8.33129C4.02621 8.32043 4.57056 8.29117 5.24419 8.22932C6.58353 8.10632 7.95117 7.88541 9.29575 7.54395C8.80991 6.69767 8.2824 5.85276 7.74543 5.04482C7.48732 4.65646 7.23631 4.2916 7.0457 4.02202C5.32951 4.87177 4.03161 6.43882 3.54388 8.33129ZM4.81971 14.1967C5.14259 13.7244 5.56717 13.1928 6.13164 12.6145C7.34332 11.3732 8.77383 10.4065 10.4282 9.87275C10.4514 9.86592 10.467 9.86133 10.48 9.8575C10.3425 9.55425 10.2135 9.28375 10.0836 9.0285C8.55358 9.47392 6.94191 9.7525 5.33566 9.89683C4.55266 9.96717 3.85004 9.99842 3.33333 10.0037C3.33418 11.5927 3.89096 13.0517 4.81971 14.1967ZM12.5037 16.1805C12.4167 15.7287 12.3057 15.2255 12.1582 14.645C11.8907 13.5927 11.5557 12.51 11.1442 11.4232C9.476 12.0286 8.14645 12.9145 7.11924 13.9707C6.6242 14.4797 6.26036 14.9614 6.02201 15.3502C7.13243 16.1772 8.50908 16.6667 10 16.6667C10.8855 16.6667 11.7307 16.494 12.5037 16.1805ZM14.0648 15.2845C15.3394 14.3027 16.2487 12.87 16.5543 11.2252C16.2711 11.1554 15.9117 11.0837 15.5163 11.0288C14.6463 10.9081 13.7512 10.8879 12.8674 11.0015C13.2444 12.0637 13.5535 13.111 13.8007 14.1134C13.9086 14.5512 13.9965 14.9465 14.0648 15.2845ZM10 18.3333C5.39762 18.3333 1.66666 14.6023 1.66666 10C1.66666 5.39762 5.39762 1.66667 10 1.66667C14.6023 1.66667 18.3333 5.39762 18.3333 10C18.3333 14.6023 14.6023 18.3333 10 18.3333Z" fill="white"/>
</g>
</svg>
