<svg width="60" height="60" viewBox="0 0 60 60" fill="none" xmlns="http://www.w3.org/2000/svg">
<circle cx="30" cy="30" r="30" fill="#FF7D61"/>
<path fill-rule="evenodd" clip-rule="evenodd" d="M40.2803 28.2959C36.9593 28.597 33.6587 29.8509 29.94 32.224C23.7117 36.1985 17.1914 43.3645 14.0081 49.7331C13.7096 50.3305 13.6697 50.4499 13.7512 50.504C13.8911 50.5969 38.3018 50.5924 39.2253 50.4992C44.3097 49.9865 48.1287 47.1652 49.8228 42.6705C50.7263 40.2734 50.8185 37.2886 50.0638 34.8709C49.5734 33.3002 48.8653 32.0984 47.7719 30.9809C46.051 29.2224 44.0738 28.3893 41.4044 28.2982C40.9451 28.2825 40.4393 28.2815 40.2803 28.2959Z" fill="#171B22"/>
<path fill-rule="evenodd" clip-rule="evenodd" d="M13.792 10.3515C13.7313 10.4136 13.7143 13.784 13.7143 25.7869C13.7143 34.9695 13.7376 41.1429 13.7722 41.1429C13.8041 41.1429 14.1119 40.8767 14.4564 40.5512C16.9493 38.1959 20.2135 35.7271 23.3125 33.8532C23.7434 33.5926 24.0869 33.3701 24.0759 33.3588C24.0648 33.3476 22.6683 33.6588 20.9724 34.0506C19.2765 34.4424 17.8617 34.7536 17.8284 34.7422C17.795 34.7308 17.9226 34.6595 18.1118 34.5836C18.301 34.5077 19.4582 34.0017 20.6833 33.4591C24.1958 31.9035 25.5554 31.3048 25.7279 31.2377C25.816 31.2034 25.8743 31.1614 25.8575 31.1443C25.8303 31.1164 19.0925 30.4535 17.8193 30.3533C17.5393 30.3313 17.2603 30.2951 17.1992 30.2728C17.1382 30.2505 18.8996 30.0598 21.1134 29.849C26.3913 29.3463 25.9275 29.3996 25.7749 29.3142C25.7048 29.275 23.8648 28.4574 21.686 27.4973C19.5071 26.5372 17.7314 25.7447 17.74 25.7363C17.7526 25.7238 25.8566 27.5766 26.2717 27.6868C26.335 27.7036 26.3779 27.6922 26.3672 27.6615C26.3564 27.6309 24.8584 26.2668 23.0382 24.6301C21.2179 22.9935 19.7143 21.6389 19.6968 21.6198C19.648 21.5666 19.5604 21.514 23.5712 23.9449C25.6495 25.2045 27.3629 26.2221 27.3786 26.206C27.3942 26.19 26.4418 24.511 25.262 22.475C22.7724 18.1786 22.8465 18.3076 22.8916 18.3499C22.9107 18.3678 24.235 19.9063 25.8345 21.7688C27.4339 23.6314 28.7652 25.1636 28.7929 25.1738C28.8205 25.184 28.7479 24.7591 28.6316 24.2295C28.5154 23.6999 28.0786 21.7135 27.661 19.8152C27.2434 17.9168 26.9083 16.3564 26.9162 16.3476C26.9241 16.3388 27.6982 18.1558 28.6366 20.3852C30.4015 24.5791 30.4505 24.6925 30.4818 24.6561C30.4921 24.6441 30.6825 22.6197 30.905 20.1575C31.1274 17.6952 31.3272 15.7317 31.349 15.7942C31.3708 15.8567 31.4062 16.1422 31.4277 16.4288C31.5256 17.7316 32.1735 24.6259 32.2007 24.6537C32.2175 24.6709 32.2573 24.6148 32.2892 24.5293C32.3334 24.4108 35.0891 17.8593 35.6279 16.5916C35.6812 16.4662 35.7272 16.3956 35.73 16.4346C35.7328 16.4736 35.3071 18.4509 34.7839 20.8285C33.954 24.6 33.811 25.3126 33.9101 25.1824C33.9822 25.0876 39.594 18.5527 39.6935 18.4476C39.7614 18.376 39.6388 18.625 39.4211 19.0011C36.5921 23.8893 35.564 25.6631 35.4057 25.9292C35.2519 26.188 35.2382 26.2389 35.3327 26.2021C35.4451 26.1583 42.2073 22.0748 42.6883 21.7603C42.8195 21.6744 42.927 21.6167 42.927 21.6319C42.927 21.6471 41.3502 23.0867 39.423 24.8311C37.4958 26.5754 35.9285 28.0122 35.9401 28.0241C35.9516 28.0359 36.5189 27.8709 37.2006 27.6574C38.784 27.1615 40.7149 26.6322 42.1853 26.291C44.0577 25.8564 43.8705 25.9417 44.1825 25.3813C45.0304 23.8582 45.4286 22.2775 45.4286 20.4338C45.4286 18.1414 44.7874 16.1659 43.453 14.3465C42.0053 12.3728 39.9485 11.0331 37.4854 10.4594L36.8489 10.3113L25.3593 10.2916C16.3773 10.2762 13.8527 10.2893 13.792 10.3515Z" fill="white"/>
</svg>
