<svg width="20" height="20" viewBox="0 0 20 20" fill="none" xmlns="http://www.w3.org/2000/svg">
<g id="Frame">
<path id="Vector" d="M6.66666 5.83333C4.36548 5.83333 2.49999 7.69882 2.49999 10C2.49999 12.3012 4.36548 14.1667 6.66666 14.1667C8.96783 14.1667 10.8333 12.3012 10.8333 10C10.8333 7.69882 8.96783 5.83333 6.66666 5.83333ZM6.66666 4.16667C8.68 4.16667 10.4551 5.18665 11.5034 6.73807C11.5127 6.71893 11.5221 6.69992 11.5315 6.68104C11.9528 5.83844 12.689 5 13.75 5C14.7342 5 15.439 5.72156 15.8722 6.49862C15.9046 6.45625 15.9382 6.41523 15.9732 6.37577C16.2136 6.10463 16.5868 5.83333 17.0833 5.83333C17.5798 5.83333 17.9531 6.10463 18.1934 6.37577C18.4347 6.64789 18.6139 6.9941 18.7475 7.35037C19.017 8.06908 19.1667 9.00608 19.1667 10C19.1667 10.9939 19.017 11.9309 18.7475 12.6497C18.6139 13.0059 18.4347 13.3521 18.1934 13.6242C17.9531 13.8953 17.5798 14.1667 17.0833 14.1667C16.5868 14.1667 16.2136 13.8953 15.9732 13.6242C15.9382 13.5848 15.9046 13.5437 15.8722 13.5013C15.439 14.2784 14.7342 15 13.75 15C12.689 15 11.9528 14.1616 11.5315 13.3189C11.5221 13.3001 11.5127 13.2811 11.5034 13.2619C10.4551 14.8133 8.68 15.8333 6.66666 15.8333C3.445 15.8333 0.833328 13.2217 0.833328 10C0.833328 6.77834 3.445 4.16667 6.66666 4.16667ZM16.6667 10C16.6667 10.7609 16.7331 11.6112 17.0833 12.3035C17.4336 11.6112 17.5 10.7609 17.5 10C17.5 9.23908 17.4336 8.38883 17.0833 7.69653C16.7331 8.38883 16.6667 9.23908 16.6667 10ZM15 10C15 9.36675 14.8223 6.66667 13.75 6.66667C12.6777 6.66667 12.5 9.36675 12.5 10C12.5 10.6332 12.6777 13.3333 13.75 13.3333C14.8223 13.3333 15 10.6332 15 10Z" fill="white"/>
</g>
</svg>
